<svg xmlns="http://www.w3.org/2000/svg" version="1.1" xmlns:xlink="http://www.w3.org/1999/xlink" width="75" height="72"><svg width="75" height="72" viewBox="0 0 75 72" fill="none" xmlns="http://www.w3.org/2000/svg">
<g clip-path="url(#clip0_4_15)">
<path d="M52.2918 34.5014C51.8655 31.369 49.3207 29.4272 44.9585 28.8181C45.5518 27.713 45.9208 26.4729 46.01 25.152C48.5873 23.3628 50.1106 19.9648 49.5446 16.3086C49.373 15.0707 48.974 13.7324 48.3686 12.3467C47.2065 9.47722 41.182 6.08959 34.0756 7.22493C31.8297 7.59057 29.2221 8.44772 27.4602 9.87838C25.8744 11.1163 25.3863 12.3019 25.3734 12.332C24.3664 14.6274 24.0348 16.6443 24.0825 18.0375C24.1547 22.3704 26.8969 24.583 27.7244 25.1547C27.8214 26.4478 28.1827 27.693 28.7889 28.8181C24.4213 29.4244 21.8715 31.3694 21.4452 34.504C20.645 40.3405 24.3513 42.8212 25.6551 43.5051C25.2766 45.9357 24.2541 57.3451 37.124 63.0513C37.8624 63.3693 38.642 62.6733 38.4183 61.9113C36.6658 55.7368 41.7282 53.5139 41.8003 53.3984C45.8089 51.6168 47.5708 47.8178 47.98 43.5601C49.1816 42.9487 53.1148 40.4906 52.2923 34.5014H52.2918ZM38.8139 31.1834L37.251 31.75C37.084 31.8154 37.0914 31.7398 35.4935 31.1834C35.3042 31.1162 35.1044 31.2566 35.1044 31.4567V32.3138C33.629 31.983 32.2729 31.2437 31.1736 30.1384C28.0429 26.9912 28.9775 23.2819 28.8105 22.1048L35.396 17.8272C36.0941 19.2887 37.6371 19.2912 38.3351 17.8272L44.9233 22.1048C44.9233 24.1024 44.9354 24.5586 44.9002 24.7812C44.7535 28.3044 42.3956 31.2065 39.2024 32.1733V31.4567C39.2024 31.2566 39.0029 31.1136 38.8131 31.1834H38.8139ZM46.0623 23.6355C45.9902 22.0247 46.2392 21.5936 45.8033 21.3102L38.6167 16.6444C38.6886 15.043 37.5891 13.5945 36.308 14.1911C36.1837 14.0128 36.4903 14.2758 29.6522 9.81535C31.0408 9.09118 32.6388 8.633 34.0444 8.38742L48.5045 17.7799C48.5196 20.2054 47.6174 22.1928 46.0617 23.636L46.0623 23.6355ZM47.3188 12.7902C47.867 14.0454 48.2236 15.2361 48.3928 16.3408L35.8275 8.17901C41.7729 7.79078 46.4562 10.6749 47.3188 12.7902ZM26.4201 12.778C26.5273 12.6599 26.7891 11.7251 28.5737 10.4799L31.8939 12.6375L25.2656 16.9477C25.3926 15.6422 25.7742 14.2438 26.4195 12.778H26.4201ZM25.2459 18.3231C33.0956 13.184 32.7337 13.5369 32.8785 13.2738L35.4982 14.975C35.2269 15.4465 35.0897 15.9925 35.1197 16.6444L27.9331 21.3102C27.4941 21.5936 27.7411 22.0593 27.6734 23.6431C26.7436 22.7885 25.3926 21.0677 25.2459 18.3231ZM47.2389 42.635C46.1969 42.8179 40.242 43.713 38.5642 40.889C38.953 40.2743 40.1122 38.9118 42.9292 38.4877C43.2405 38.4401 43.4548 38.1496 43.4079 37.8366C43.3598 37.5229 43.0707 37.3101 42.7594 37.3556C38.9881 37.9239 37.7041 40.0067 37.4031 40.6305C37.3275 40.7881 37.3251 40.969 37.4005 41.1269C38.8312 44.1812 43.4499 44.3293 46.7904 43.8656C46.354 47.4664 44.7139 50.9672 41.4281 52.3078C41.314 52.3405 41.1718 52.433 40.9547 52.5636C36.3385 55.3051 36.7074 59.7058 37.223 61.8355C25.5246 56.4397 26.3549 46.3014 26.7487 43.8405C30.1167 44.344 34.8678 44.2413 36.3283 41.1262C36.4011 40.9686 36.4011 40.7881 36.3238 40.6305C36.0194 40.0063 34.738 37.9264 30.9668 37.3549C30.6553 37.3101 30.3663 37.5229 30.3191 37.836C30.271 38.149 30.4855 38.4401 30.7977 38.4877C33.6143 38.9138 34.7758 40.2769 35.1644 40.8908C33.2226 44.1631 25.4328 42.4722 26.4971 42.635C26.3031 42.5594 21.7412 40.7451 22.5766 34.6586C23.0355 31.2951 26.4997 30.1931 29.4616 29.8697C30.9271 31.8795 32.9882 33.0972 35.1968 33.5058C35.3889 34.6734 35.9696 35.7561 36.8874 36.5203C37.0417 36.6479 37.2759 36.6479 37.4303 36.5203C38.3797 35.7182 38.9682 34.5881 39.1356 33.373C41.2496 32.8392 43.0714 31.5811 44.3127 29.8722C47.2664 30.1982 50.7138 31.3053 51.1699 34.6586C51.7335 38.8207 49.6971 41.6574 47.2389 42.635Z" fill="#FF914D"></path>
<path d="M36.7999 26.4396C37.2065 26.4396 37.5351 26.1091 37.5351 25.7003V24.4978C37.5351 24.094 37.211 23.7587 36.7999 23.7587C36.3935 23.7587 36.0649 24.0891 36.0649 24.4978V25.7003C36.0649 26.1091 36.3935 26.4396 36.7999 26.4396Z" fill="#FF914D"></path>
<path d="M32.7318 21.3901C31.8894 21.3901 31.1838 21.9868 31.0122 22.7836H34.4515C34.2799 21.9868 33.5743 21.3901 32.7318 21.3901Z" fill="#FF914D"></path>
<path d="M41.002 21.3901C40.1595 21.3901 39.4539 21.9868 39.2823 22.7836H42.7216C42.55 21.9868 41.8444 21.3901 41.002 21.3901Z" fill="#FF914D"></path>
<path d="M40.0448 28.0838C40.1221 27.7256 39.8501 27.3897 39.4891 27.3897H34.2465C33.8855 27.3897 33.6135 27.7256 33.6908 28.0838C34.0151 29.5746 35.3507 30.6574 36.8688 30.6574C38.3842 30.6574 39.7205 29.5746 40.0448 28.0838ZM36.8662 29.5122C36.1364 29.5122 35.4706 29.1262 35.089 28.5347H38.6415C38.2598 29.1262 37.5971 29.5122 36.8662 29.5122Z" fill="#FF914D"></path>
<path d="M-2.63636 41.4545V38.6364C-0.106061 38.6364 1.65909 38.1061 2.65909 37.0455C3.67424 35.9848 4.18182 34.2121 4.18182 31.7273V24.4545C4.18182 22.3636 4.37879 20.553 4.77273 19.0227C5.18182 17.4924 5.84091 16.2273 6.75 15.2273C7.65909 14.2273 8.87121 13.4848 10.3864 13C11.9015 12.5151 13.7727 12.2727 16 12.2727V16.7273C14.2424 16.7273 12.8561 17 11.8409 17.5455C10.8409 18.0909 10.1288 18.9394 9.70455 20.0909C9.29546 21.2273 9.09091 22.6818 9.09091 24.4545V33.5455C9.09091 34.7273 8.93182 35.803 8.61364 36.7727C8.31061 37.7424 7.74242 38.5758 6.90909 39.2727C6.07576 39.9697 4.88636 40.5076 3.34091 40.8864C1.81061 41.2652 -0.181818 41.4545 -2.63636 41.4545ZM16 70.4545C13.7727 70.4545 11.9015 70.2121 10.3864 69.7273C8.87121 69.2424 7.65909 68.5 6.75 67.5C5.84091 66.5 5.18182 65.2348 4.77273 63.7045C4.37879 62.1742 4.18182 60.3636 4.18182 58.2727V51C4.18182 48.5152 3.67424 46.7424 2.65909 45.6818C1.65909 44.6212 -0.106061 44.0909 -2.63636 44.0909V41.2727C-0.181818 41.2727 1.81061 41.4621 3.34091 41.8409C4.88636 42.2197 6.07576 42.7576 6.90909 43.4545C7.74242 44.1515 8.31061 44.9848 8.61364 45.9545C8.93182 46.9242 9.09091 48 9.09091 49.1818V58.2727C9.09091 60.0455 9.29546 61.5 9.70455 62.6364C10.1288 63.7727 10.8409 64.6136 11.8409 65.1591C12.8561 65.7197 14.2424 66 16 66V70.4545ZM-2.63636 44.0909V38.6364H2.72727V44.0909H-2.63636Z" fill="#FF914D"></path>
<path d="M73.8182 41.2727V44.0909C71.2879 44.0909 69.5152 44.6212 68.5 45.6818C67.5 46.7424 67 48.5152 67 51V58.2727C67 60.3636 66.7955 62.1742 66.3864 63.7045C65.9924 65.2348 65.3409 66.5 64.4318 67.5C63.5227 68.5 62.3106 69.2424 60.7955 69.7273C59.2803 70.2121 57.4091 70.4545 55.1818 70.4545V66C56.9394 66 58.3182 65.7197 59.3182 65.1591C60.3333 64.6136 61.0455 63.7727 61.4545 62.6364C61.8788 61.5 62.0909 60.0455 62.0909 58.2727V49.1818C62.0909 48 62.2424 46.9242 62.5455 45.9545C62.8636 44.9848 63.4394 44.1515 64.2727 43.4545C65.1061 42.7576 66.2879 42.2197 67.8182 41.8409C69.3636 41.4621 71.3636 41.2727 73.8182 41.2727ZM55.1818 12.2727C57.4091 12.2727 59.2803 12.5151 60.7955 13C62.3106 13.4848 63.5227 14.2273 64.4318 15.2273C65.3409 16.2273 65.9924 17.4924 66.3864 19.0227C66.7955 20.553 67 22.3636 67 24.4545V31.7273C67 34.2121 67.5 35.9848 68.5 37.0455C69.5152 38.1061 71.2879 38.6364 73.8182 38.6364V41.4545C71.3636 41.4545 69.3636 41.2652 67.8182 40.8864C66.2879 40.5076 65.1061 39.9697 64.2727 39.2727C63.4394 38.5758 62.8636 37.7424 62.5455 36.7727C62.2424 35.803 62.0909 34.7273 62.0909 33.5455V24.4545C62.0909 22.6818 61.8788 21.2273 61.4545 20.0909C61.0455 18.9394 60.3333 18.0909 59.3182 17.5455C58.3182 17 56.9394 16.7273 55.1818 16.7273V12.2727ZM73.8182 38.6364V44.0909H68.4545V38.6364H73.8182Z" fill="#FF914D"></path>
</g>
<defs>
<clipPath id="SvgjsClipPath1001">
<rect width="75" height="70.9652" fill="white" transform="translate(0 0.892406)"></rect>
</clipPath>
</defs>
</svg><style>@media (prefers-color-scheme: light) { :root { filter: none; } }
@media (prefers-color-scheme: dark) { :root { filter: none; } }
</style></svg>